<?xml version="1.0" encoding="utf-8"?>
<!-- Generator: Adobe Illustrator 17.1.0, SVG Export Plug-In . SVG Version: 6.00 Build 0)  -->
<!DOCTYPE svg PUBLIC "-//W3C//DTD SVG 1.1//EN" "http://www.w3.org/Graphics/SVG/1.1/DTD/svg11.dtd">
<svg version="1.1" id="Layer_1" xmlns="http://www.w3.org/2000/svg" xmlns:xlink="http://www.w3.org/1999/xlink" x="0px" y="0px"
	 viewBox="0 0 960 180" enable-background="new 0 0 960 180" xml:space="preserve">
<g>
	<g>
		<path fill="#B3B3B3" d="M2.7,145.9h5.1v30.5H2.7V145.9z"/>
		<path fill="#B3B3B3" d="M21.4,145.9h5.1v25.7h9.4v4.8H21.4V145.9z"/>
		<path fill="#B3B3B3" d="M64.7,145.9h4.7l5.9,16.3c0.4,1.1,0.9,2.9,1.4,5.5h0.2c-0.5-2.7-0.7-4.8-0.7-6.2v-15.6h4.5v30.5h-4.3
			l-6.3-17.6c-0.7-1.8-1.1-3.6-1.4-5.4h-0.2c0.5,2.3,0.7,4.5,0.7,6.9v16.1h-4.5V145.9z"/>
		<path fill="#B3B3B3" d="M94.2,145.9h14v4.8h-8.9v7.6h6.8v4.8h-6.8v8.5h9.4v4.8H94.2V145.9z"/>
		<path fill="#B3B3B3" d="M123.6,150.6h-5v-4.6h15.2v4.6h-5v25.9h-5.1V150.6z"/>
		<path fill="#B3B3B3" d="M143.4,145.9h4.6l2.5,16.8c0.2,1.2,0.3,3.2,0.4,6.1c0.2-3.1,0.4-5.3,0.6-6.3l3-16.6h4l3,17.1
			c0.3,1.7,0.5,3.6,0.5,5.8c0-2.1,0.2-4.1,0.5-6l2.6-16.9h4.5l-5.1,30.5h-4.2l-3.2-17.1c-0.4-2-0.6-4.2-0.7-6.5
			c-0.3,3.2-0.5,5.3-0.7,6.3l-3.2,17.3h-4.1L143.4,145.9z"/>
		<path fill="#B3B3B3" d="M189.2,145.3c5.8,0,9,5.3,9,15.8c0,10.5-3.1,15.9-9,15.9c-5.8,0-9-5.4-9-15.9
			C180.3,150.7,183.4,145.3,189.2,145.3z M189.2,172.5c2.7,0,3.9-3.7,3.9-11.3c0-7.6-1.2-11.3-3.9-11.3c-2.7,0-3.9,3.7-3.9,11.3
			C185.4,168.8,186.5,172.5,189.2,172.5z"/>
		<path fill="#B3B3B3" d="M222.2,176.4l-3.7-12.7c-0.7,0.1-1.4,0.1-2.1,0.1c-0.2,0-0.5,0-0.7,0v12.6h-5.1v-30.5h6.8
			c2.9,0,5.1,0.1,7,1.6c1.8,1.4,3,4,3,7.3c0,3.7-1.4,6.4-4.2,8l4.2,13.5H222.2z M216.9,159.7c3.8,0,5.3-1.4,5.3-5
			c0-3.3-1.5-4.7-4.9-4.7c-0.5,0-1,0-1.5,0.1v9.5C216.1,159.7,216.5,159.7,216.9,159.7z"/>
		<path fill="#B3B3B3" d="M240.2,145.9h5.1v10.3l5.5-10.3h5.2l-5.8,10.9l6.5,19.6h-5.3l-4.6-14.8l-1.5,2.8v12.1h-5.1V145.9z"/>
		<path fill="#B3B3B3" d="M284.5,145.9h6.3c3.5,0,5.9,0.5,7.7,2.9c2.1,2.7,2.8,6.7,2.8,12.3c0,5.6-0.7,9.6-2.8,12.3
			c-1.8,2.4-4.2,2.9-7.7,2.9h-6.3V145.9z M290.9,172c1.8,0,2.9-0.2,3.6-1.2c1.2-1.6,1.6-4.8,1.6-9.6c0-4.8-0.5-8-1.6-9.6
			c-0.7-1-1.8-1.2-3.6-1.2h-1.3V172H290.9z"/>
		<path fill="#B3B3B3" d="M313.8,145.9h14v4.8h-8.9v7.6h6.8v4.8h-6.8v8.5h9.4v4.8h-14.5V145.9z"/>
		<path fill="#B3B3B3" d="M340.4,145.9h5.1v30.5h-5.1V145.9z"/>
		<path fill="#B3B3B3" d="M376.4,145.9h6.8c6.9,0,10,2.4,10,9.1c0,5.7-3.2,8.8-9,8.8h-2.6v12.6h-5.1V145.9z M382.8,159.7
			c3.7,0,5.2-1.4,5.2-5c0-3.3-1.5-4.7-4.8-4.7c-0.5,0-1.1,0-1.8,0.1v9.5C382,159.7,382.4,159.7,382.8,159.7z"/>
		<path fill="#B3B3B3" d="M417.2,176.4l-3.7-12.7c-0.7,0.1-1.4,0.1-2.1,0.1c-0.2,0-0.5,0-0.7,0v12.6h-5.1v-30.5h6.8
			c2.9,0,5.1,0.1,7,1.6c1.8,1.4,3,4,3,7.3c0,3.7-1.4,6.4-4.2,8l4.2,13.5H417.2z M411.8,159.7c3.8,0,5.3-1.4,5.3-5
			c0-3.3-1.5-4.7-4.9-4.7c-0.5,0-1,0-1.5,0.1v9.5C411.1,159.7,411.5,159.7,411.8,159.7z"/>
		<path fill="#B3B3B3" d="M442.9,145.3c5.8,0,9,5.3,9,15.8c0,10.5-3.1,15.9-9,15.9c-5.8,0-9-5.4-9-15.9
			C434,150.7,437.1,145.3,442.9,145.3z M442.9,172.5c2.7,0,3.9-3.7,3.9-11.3c0-7.6-1.2-11.3-3.9-11.3c-2.7,0-3.9,3.7-3.9,11.3
			C439.1,168.8,440.2,172.5,442.9,172.5z"/>
		<path fill="#B3B3B3" d="M464.3,145.9h14v4.8h-8.9v7.6h6.8v4.8h-6.8v13.3h-5.1V145.9z"/>
		<path fill="#B3B3B3" d="M490.4,145.9h14v4.8h-8.9v7.6h6.8v4.8h-6.8v8.5h9.4v4.8h-14.5V145.9z"/>
		<path fill="#B3B3B3" d="M520.3,167.7c0.5,3.1,1.6,4.6,3.4,4.6c1.8,0,3-1.2,3-3c0-2.8-2.7-4.8-6.7-8.5c-2.4-2.2-3.8-5-3.8-7.9
			c0-4.5,3.3-7.5,7.6-7.5c4.1,0,6.8,2.5,7.4,7.2l-4.6,0.7c-0.3-2.4-1.4-3.7-2.9-3.7c-1.6,0-2.7,1.2-2.7,3c0,2.2,1.5,3.6,3.6,5.6
			c3.9,3.6,7,6,7,10.8c0,4.5-3.1,7.8-7.8,7.8c-4.6,0-7.6-3-8.2-8.5L520.3,167.7z"/>
		<path fill="#B3B3B3" d="M547.4,167.7c0.5,3.1,1.6,4.6,3.4,4.6c1.8,0,3-1.2,3-3c0-2.8-2.7-4.8-6.7-8.5c-2.4-2.2-3.8-5-3.8-7.9
			c0-4.5,3.3-7.5,7.6-7.5c4.1,0,6.8,2.5,7.4,7.2l-4.6,0.7c-0.3-2.4-1.4-3.7-2.9-3.7c-1.6,0-2.7,1.2-2.7,3c0,2.2,1.5,3.6,3.6,5.6
			c3.9,3.6,7,6,7,10.8c0,4.5-3.1,7.8-7.8,7.8c-4.6,0-7.6-3-8.2-8.5L547.4,167.7z"/>
		<path fill="#B3B3B3" d="M571.1,145.9h5.1v30.5h-5.1V145.9z"/>
		<path fill="#B3B3B3" d="M597.6,145.3c5.8,0,9,5.3,9,15.8c0,10.5-3.1,15.9-9,15.9c-5.8,0-9-5.4-9-15.9
			C588.7,150.7,591.8,145.3,597.6,145.3z M597.6,172.5c2.7,0,3.9-3.7,3.9-11.3c0-7.6-1.2-11.3-3.9-11.3c-2.7,0-3.9,3.7-3.9,11.3
			C593.7,168.8,594.9,172.5,597.6,172.5z"/>
		<path fill="#B3B3B3" d="M619,145.9h4.7l5.9,16.3c0.4,1.1,0.9,2.9,1.4,5.5h0.2c-0.5-2.7-0.7-4.8-0.7-6.2v-15.6h4.5v30.5h-4.3
			l-6.3-17.6c-0.7-1.8-1.1-3.6-1.4-5.4h-0.2c0.5,2.3,0.7,4.5,0.7,6.9v16.1H619V145.9z"/>
		<path fill="#B3B3B3" d="M648.5,145.9h5.1v30.5h-5.1V145.9z"/>
		<path fill="#B3B3B3" d="M670.8,167.7c0.5,3.1,1.6,4.6,3.4,4.6c1.8,0,3-1.2,3-3c0-2.8-2.7-4.8-6.7-8.5c-2.4-2.2-3.8-5-3.8-7.9
			c0-4.5,3.3-7.5,7.6-7.5c4.1,0,6.8,2.5,7.4,7.2l-4.6,0.7c-0.3-2.4-1.4-3.7-2.9-3.7c-1.6,0-2.7,1.2-2.7,3c0,2.2,1.5,3.6,3.6,5.6
			c3.9,3.6,7,6,7,10.8c0,4.5-3.1,7.8-7.8,7.8c-4.6,0-7.6-3-8.2-8.5L670.8,167.7z"/>
		<path fill="#B3B3B3" d="M697.4,150.6h-5v-4.6h15.2v4.6h-5v25.9h-5.1V150.6z"/>
		<path fill="#B3B3B3" d="M719.2,145.9h5.1v30.5h-5.1V145.9z"/>
		<path fill="#B3B3B3" d="M755.2,145.9h6.3c3.5,0,5.9,0.5,7.7,2.9c2.1,2.7,2.8,6.7,2.8,12.3c0,5.6-0.7,9.6-2.8,12.3
			c-1.8,2.4-4.2,2.9-7.7,2.9h-6.3V145.9z M761.6,172c1.8,0,2.9-0.2,3.6-1.2c1.2-1.6,1.6-4.8,1.6-9.6c0-4.8-0.5-8-1.6-9.6
			c-0.7-1-1.8-1.2-3.6-1.2h-1.3V172H761.6z"/>
		<path fill="#B3B3B3" d="M784.6,145.9h14v4.8h-8.9v7.6h6.8v4.8h-6.8v8.5h9.4v4.8h-14.5V145.9z"/>
		<path fill="#B3B3B3" d="M811,145.9h5.1v25.7h9.4v4.8H811V145.9z"/>
		<path fill="#B3B3B3" d="M854.3,145.9h6.8l3.5,16.1c0.3,1.2,0.5,3.4,0.7,6.8c0.1-3.5,0.3-5.8,0.6-6.9l3.5-16h6.7v30.5h-4.7l0-19.7
			c0-0.5,0.1-2.7,0.4-6.5c-0.3,1.8-0.7,3.9-1.2,6.4l-4,19.9h-2.6l-4-19.9c-0.5-2.5-0.9-4.6-1.2-6.4c0.3,3.9,0.4,6,0.4,6.5l0,19.7
			h-4.7V145.9z"/>
		<path fill="#B3B3B3" d="M892.8,145.9h6.5l5.5,30.5h-5l-0.9-6.6h-5.7l-1,6.6h-4.9L892.8,145.9z M898.1,165.1l-2.1-14.2l-2,14.2
			H898.1z"/>
		<path fill="#B3B3B3" d="M927.6,176.4l-3.7-12.7c-0.7,0.1-1.4,0.1-2.1,0.1c-0.2,0-0.5,0-0.7,0v12.6h-5.1v-30.5h6.8
			c2.9,0,5.1,0.1,7,1.6c1.8,1.4,3,4,3,7.3c0,3.7-1.4,6.4-4.2,8l4.2,13.5H927.6z M922.2,159.7c3.8,0,5.3-1.4,5.3-5
			c0-3.3-1.5-4.7-4.9-4.7c-0.5,0-1,0-1.5,0.1v9.5C921.5,159.7,921.8,159.7,922.2,159.7z"/>
		<path fill="#B3B3B3" d="M945.5,145.9h14v4.8h-8.9v7.6h6.8v4.8h-6.8v8.5h9.4v4.8h-14.5V145.9z"/>
	</g>
	<g>
		<g>
			<g>
				<path fill="#B3B3B3" d="M29,24.2l-0.6,9.3c2.3-3.7,5-6.4,8.1-8.2c3.1-1.8,6.7-2.7,10.7-2.7c7.8,0,14,3.7,18.5,11
					c2.5-3.7,5.2-6.4,8.3-8.2c3.1-1.8,6.5-2.7,10.3-2.7c5,0,9.1,1.2,12.4,3.6c3.3,2.4,5.4,5.4,6.3,8.9c0.9,3.5,1.4,9.2,1.4,17.1
					v68.5H76V57.9c0-8.2-0.3-13.3-0.8-15.3c-0.6-2-1.8-2.9-3.9-2.9c-2.1,0-3.4,1-4,2.9c-0.6,1.9-0.9,7-0.9,15.3v62.7H37.9V59.5
					c0-9.4-0.2-15.1-0.7-17c-0.5-1.9-1.7-2.8-3.8-2.8c-1.3,0-2.4,0.5-3.3,1.5c-0.9,1-1.4,2.2-1.5,3.6c-0.1,1.4-0.1,4.5-0.1,9.1v66.7
					H0V24.2H29z"/>
				<path fill="#B3B3B3" d="M140.9,61.6h-27.5v-6.5c0-7.5,0.9-13.2,2.6-17.2c1.7-4,5.2-7.6,10.4-10.7c5.2-3.1,11.9-4.6,20.2-4.6
					c9.9,0,17.4,1.8,22.5,5.3c5,3.5,8.1,7.8,9.1,12.9c1,5.1,1.5,15.6,1.5,31.5v48.4h-28.7v-8.7c-1.8,3.5-4.1,6.1-6.9,7.8
					c-2.8,1.7-6.2,2.6-10.1,2.6c-5.1,0-9.8-1.4-14.1-4.3c-4.3-2.9-6.4-9.2-6.4-18.9v-7.9c0-7.2,1.1-12.1,3.4-14.7
					c2.3-2.6,7.9-5.7,16.9-9.1c9.6-3.8,14.8-6.3,15.5-7.6c0.7-1.3,1-4,1-7.9c0-5-0.4-8.3-1.1-9.8c-0.7-1.5-2-2.3-3.7-2.3
					c-2,0-3.2,0.6-3.7,1.9c-0.5,1.3-0.7,4.6-0.7,9.9V61.6z M150.2,74.8c-4.7,3.4-7.4,6.3-8.1,8.6c-0.7,2.3-1.1,5.6-1.1,10
					c0,5,0.3,8.2,1,9.6c0.6,1.4,1.9,2.2,3.9,2.2c1.8,0,3-0.6,3.6-1.7c0.6-1.1,0.8-4.1,0.8-8.9V74.8z"/>
				<path fill="#B3B3B3" d="M219.1,24.2L218,37c4.2-9.1,10.4-13.9,18.5-14.5v34c-5.4,0-9.3,0.7-11.8,2.2c-2.5,1.4-4.1,3.5-4.6,6.1
					c-0.6,2.6-0.9,8.5-0.9,17.9v38h-29.4V24.2H219.1z"/>
				<path fill="#B3B3B3" d="M273.1,2.9v15.3h-30.2V2.9H273.1z M273.1,24.2v96.4h-30.2V24.2H273.1z"/>
				<path fill="#B3B3B3" d="M313.7,24.2l-0.6,8.9c2.1-3.5,4.7-6.2,7.8-8c3.1-1.8,6.6-2.7,10.6-2.7c5,0,9.1,1.2,12.3,3.6
					c3.2,2.4,5.2,5.4,6.2,9c0.9,3.6,1.4,9.6,1.4,18v67.5H322V54c0-6.6-0.2-10.7-0.6-12.1c-0.4-1.4-1.6-2.2-3.6-2.2
					c-2.1,0-3.3,0.8-3.9,2.5c-0.5,1.7-0.8,6.1-0.8,13.4v65h-29.4V24.2H313.7z"/>
				<path fill="#B3B3B3" d="M427.9,74.2H390v20.7c0,4.3,0.3,7.1,0.9,8.4c0.6,1.2,1.8,1.9,3.6,1.9c2.2,0,3.7-0.8,4.4-2.5
					c0.7-1.7,1.1-4.9,1.1-9.6V80.4h27.9v7.1c0,5.9-0.4,10.5-1.1,13.7c-0.8,3.2-2.5,6.6-5.3,10.2c-2.8,3.6-6.3,6.3-10.5,8.1
					c-4.2,1.8-9.6,2.7-15.9,2.7c-6.2,0-11.7-0.9-16.4-2.7c-4.7-1.8-8.4-4.2-11.1-7.4c-2.6-3.1-4.5-6.6-5.5-10.3
					c-1-3.8-1.5-9.2-1.5-16.4V57.5c0-8.4,1.1-15.1,3.4-19.9c2.3-4.9,6-8.6,11.2-11.2c5.2-2.6,11.1-3.9,17.9-3.9
					c8.2,0,15,1.6,20.4,4.7c5.4,3.1,9.1,7.3,11.3,12.4c2.2,5.2,3.2,12.4,3.2,21.8V74.2z M398.5,58.6v-7c0-5-0.3-8.2-0.8-9.6
					c-0.5-1.5-1.6-2.2-3.2-2.2c-2,0-3.3,0.6-3.7,1.9c-0.5,1.2-0.7,4.6-0.7,10v7H398.5z"/>
			</g>
			<g>
				<path fill="#666666" d="M467.9,24.2l-0.5,8.6c2.6-3.5,5.5-6,8.6-7.8c3.1-1.7,6.6-2.6,10.3-2.6c4.5,0,8.5,1.2,11.8,3.7
					c3.3,2.4,5.4,5.3,6.2,8.5c0.8,3.2,1.2,8.6,1.2,16.3v40.6c0,8.8-0.5,15-1.6,18.7c-1,3.7-3.2,6.7-6.4,8.9
					c-3.2,2.2-7.1,3.3-11.6,3.3c-3.6,0-7-0.9-10.1-2.6c-3.1-1.7-5.9-4.3-8.5-7.6v22.3H438V24.2H467.9z M476.1,52.4
					c0-5.9-0.2-9.5-0.6-10.8c-0.4-1.3-1.6-1.9-3.6-1.9c-1.9,0-3.1,0.7-3.7,2.2c-0.5,1.4-0.8,4.9-0.8,10.5v39.8
					c0,5.8,0.3,9.4,0.9,10.8c0.6,1.4,1.8,2.2,3.7,2.2c1.9,0,3-0.7,3.5-2c0.4-1.3,0.7-4.5,0.7-9.7V52.4z"/>
				<path fill="#666666" d="M541.5,61.6h-27.5v-6.5c0-7.5,0.9-13.2,2.6-17.2c1.7-4,5.2-7.6,10.4-10.7c5.2-3.1,11.9-4.6,20.2-4.6
					c9.9,0,17.4,1.8,22.5,5.3c5,3.5,8.1,7.8,9.1,12.9c1,5.1,1.5,15.6,1.5,31.5v48.4h-28.7v-8.7c-1.8,3.5-4.1,6.1-6.9,7.8
					c-2.8,1.7-6.2,2.6-10.1,2.6c-5.1,0-9.8-1.4-14.1-4.3c-4.3-2.9-6.4-9.2-6.4-18.9v-7.9c0-7.2,1.1-12.1,3.4-14.7
					c2.3-2.6,7.9-5.7,16.9-9.1c9.6-3.8,14.8-6.3,15.5-7.6c0.7-1.3,1-4,1-7.9c0-5-0.4-8.3-1.1-9.8c-0.7-1.5-2-2.3-3.7-2.3
					c-2,0-3.2,0.6-3.7,1.9c-0.5,1.3-0.7,4.6-0.7,9.9V61.6z M550.7,74.8c-4.7,3.4-7.4,6.3-8.1,8.6c-0.7,2.3-1.1,5.6-1.1,10
					c0,5,0.3,8.2,1,9.6c0.6,1.4,1.9,2.2,3.9,2.2c1.8,0,3-0.6,3.6-1.7c0.6-1.1,0.8-4.1,0.8-8.9V74.8z"/>
				<path fill="#666666" d="M619.6,24.2L618.5,37c4.2-9.1,10.4-13.9,18.5-14.5v34c-5.4,0-9.3,0.7-11.8,2.2c-2.5,1.4-4.1,3.5-4.6,6.1
					c-0.6,2.6-0.9,8.5-0.9,17.9v38h-29.4V24.2H619.6z"/>
				<path fill="#666666" d="M674.4,11.4v15.1h7.7v15.3h-7.7v51.7c0,6.4,0.3,9.9,1,10.6c0.6,0.7,3.3,1.1,8.1,1.1v15.5h-11.8
					c-6.7,0-11.4-0.3-14.3-0.8c-2.8-0.6-5.4-1.8-7.5-3.9c-2.2-2-3.5-4.3-4.1-6.9c-0.5-2.6-0.8-8.7-0.8-18.3v-49h-6.4V26.5h6.4V11.4
					H674.4z"/>
				<path fill="#666666" d="M718.8,24.2l-0.6,8.9c2.1-3.5,4.7-6.2,7.8-8c3.1-1.8,6.6-2.7,10.6-2.7c5,0,9.1,1.2,12.3,3.6
					c3.2,2.4,5.2,5.4,6.2,9c0.9,3.6,1.4,9.6,1.4,18v67.5h-29.4V54c0-6.6-0.2-10.7-0.6-12.1c-0.4-1.4-1.6-2.2-3.6-2.2
					c-2.1,0-3.3,0.8-3.9,2.5c-0.5,1.7-0.8,6.1-0.8,13.4v65h-29.4V24.2H718.8z"/>
				<path fill="#666666" d="M833,74.2h-37.9v20.7c0,4.3,0.3,7.1,0.9,8.4c0.6,1.2,1.8,1.9,3.6,1.9c2.2,0,3.7-0.8,4.4-2.5
					c0.7-1.7,1.1-4.9,1.1-9.6V80.4H833v7.1c0,5.9-0.4,10.5-1.1,13.7c-0.8,3.2-2.5,6.6-5.3,10.2c-2.8,3.6-6.3,6.3-10.5,8.1
					c-4.2,1.8-9.6,2.7-15.9,2.7c-6.2,0-11.7-0.9-16.4-2.7c-4.7-1.8-8.4-4.2-11.1-7.4c-2.6-3.1-4.5-6.6-5.5-10.3
					c-1-3.8-1.5-9.2-1.5-16.4V57.5c0-8.4,1.1-15.1,3.4-19.9c2.3-4.9,6-8.6,11.2-11.2c5.2-2.6,11.1-3.9,17.9-3.9
					c8.2,0,15,1.6,20.4,4.7c5.4,3.1,9.1,7.3,11.3,12.4c2.2,5.2,3.2,12.4,3.2,21.8V74.2z M803.6,58.6v-7c0-5-0.3-8.2-0.8-9.6
					c-0.5-1.5-1.6-2.2-3.2-2.2c-2,0-3.3,0.6-3.7,1.9c-0.5,1.2-0.7,4.6-0.7,10v7H803.6z"/>
				<path fill="#666666" d="M872.1,24.2L870.9,37c4.2-9.1,10.4-13.9,18.5-14.5v34c-5.4,0-9.3,0.7-11.8,2.2c-2.5,1.4-4.1,3.5-4.6,6.1
					c-0.6,2.6-0.9,8.5-0.9,17.9v38h-29.4V24.2H872.1z"/>
				<path fill="#666666" d="M955.7,55.2h-26v-5.2c0-4.5-0.3-7.3-0.8-8.5c-0.5-1.2-1.8-1.8-3.8-1.8c-1.6,0-2.9,0.5-3.7,1.6
					c-0.8,1.1-1.2,2.7-1.2,4.9c0,2.9,0.2,5.1,0.6,6.5c0.4,1.4,1.6,2.9,3.7,4.5c2.1,1.6,6.3,4,12.7,7.2c8.5,4.2,14.1,8.1,16.8,11.7
					c2.7,3.7,4,9,4,16c0,7.8-1,13.7-3.1,17.7c-2,4-5.4,7.1-10.2,9.2c-4.8,2.1-10.5,3.2-17.3,3.2c-7.5,0-13.8-1.2-19.1-3.5
					c-5.3-2.3-8.9-5.5-10.9-9.5c-2-4-3-10-3-18v-4.7h26v6.1c0,5.2,0.3,8.5,1,10.1c0.6,1.5,1.9,2.3,3.9,2.3c2.1,0,3.5-0.5,4.3-1.6
					c0.8-1,1.2-3.2,1.2-6.6c0-4.6-0.5-7.5-1.6-8.6c-1.1-1.2-6.8-4.6-17-10.3c-8.6-4.8-13.8-9.2-15.7-13.2c-1.9-3.9-2.8-8.6-2.8-14
					c0-7.7,1-13.3,3-17c2-3.6,5.5-6.5,10.3-8.4c4.9-2,10.5-3,16.9-3c6.4,0,11.8,0.8,16.3,2.4c4.5,1.6,7.9,3.8,10.3,6.4
					c2.4,2.7,3.8,5.1,4.4,7.4c0.5,2.3,0.8,5.9,0.8,10.7V55.2z"/>
			</g>
		</g>
	</g>
</g>
</svg>
